<mxfile host="65bd71144e">
    <diagram id="LxvFAjWOBnG8jS-pmYLM" name="Page-1">
        <mxGraphModel dx="3101" dy="3304" grid="1" gridSize="10" guides="1" tooltips="1" connect="1" arrows="1" fold="1" page="1" pageScale="1" pageWidth="850" pageHeight="1100" math="0" shadow="0">
            <root>
                <mxCell id="0"/>
                <mxCell id="1" parent="0"/>
                <mxCell id="86" style="edgeStyle=none;html=1;exitX=0.5;exitY=0;exitDx=0;exitDy=0;entryX=0.75;entryY=1;entryDx=0;entryDy=0;rounded=1;strokeWidth=3;endArrow=ERmany;endFill=0;fontSize=17;labelBorderColor=none;fillColor=#647687;strokeColor=#314354;" parent="1" source="2" target="48" edge="1">
                    <mxGeometry relative="1" as="geometry"/>
                </mxCell>
                <mxCell id="94" style="edgeStyle=none;html=1;exitX=0.5;exitY=0;exitDx=0;exitDy=0;entryX=0.75;entryY=1;entryDx=0;entryDy=0;rounded=1;strokeWidth=3;endArrow=ERmany;endFill=0;fontSize=17;labelBorderColor=none;fillColor=#647687;strokeColor=#314354;" parent="1" source="2" target="58" edge="1">
                    <mxGeometry relative="1" as="geometry"/>
                </mxCell>
                <mxCell id="2" value="Patient" style="swimlane;fontStyle=0;childLayout=stackLayout;horizontal=1;startSize=30;horizontalStack=0;resizeParent=1;resizeParentMax=0;resizeLast=0;collapsible=1;marginBottom=0;whiteSpace=wrap;html=1;rounded=1;strokeWidth=3;fontSize=17;labelBorderColor=none;fillColor=#647687;fontColor=#ffffff;strokeColor=#314354;" parent="1" vertex="1">
                    <mxGeometry x="750" y="-600" width="230" height="206" as="geometry">
                        <mxRectangle x="180" y="70" width="80" height="30" as="alternateBounds"/>
                    </mxGeometry>
                </mxCell>
                <mxCell id="3" value="#patient_id" style="text;align=left;verticalAlign=middle;spacingLeft=4;spacingRight=4;overflow=hidden;points=[[0,0.5],[1,0.5]];portConstraint=eastwest;rotatable=0;whiteSpace=wrap;html=1;rounded=1;strokeWidth=3;fontSize=17;labelBorderColor=none;fillColor=#647687;fontColor=#ffffff;strokeColor=#314354;" parent="2" vertex="1">
                    <mxGeometry y="30" width="230" height="30" as="geometry"/>
                </mxCell>
                <mxCell id="4" value="name" style="text;align=left;verticalAlign=middle;spacingLeft=4;spacingRight=4;overflow=hidden;points=[[0,0.5],[1,0.5]];portConstraint=eastwest;rotatable=0;whiteSpace=wrap;html=1;rounded=1;strokeWidth=3;fontSize=17;labelBorderColor=none;fillColor=#647687;fontColor=#ffffff;strokeColor=#314354;" parent="2" vertex="1">
                    <mxGeometry y="60" width="230" height="30" as="geometry"/>
                </mxCell>
                <mxCell id="5" value="phone" style="text;align=left;verticalAlign=middle;spacingLeft=4;spacingRight=4;overflow=hidden;points=[[0,0.5],[1,0.5]];portConstraint=eastwest;rotatable=0;whiteSpace=wrap;html=1;rounded=1;strokeWidth=3;fontSize=17;labelBorderColor=none;fillColor=#647687;fontColor=#ffffff;strokeColor=#314354;" parent="2" vertex="1">
                    <mxGeometry y="90" width="230" height="30" as="geometry"/>
                </mxCell>
                <mxCell id="7" value="gender" style="text;align=left;verticalAlign=middle;spacingLeft=4;spacingRight=4;overflow=hidden;points=[[0,0.5],[1,0.5]];portConstraint=eastwest;rotatable=0;whiteSpace=wrap;html=1;rounded=1;strokeWidth=3;fontSize=17;labelBorderColor=none;fillColor=#647687;fontColor=#ffffff;strokeColor=#314354;" parent="2" vertex="1">
                    <mxGeometry y="120" width="230" height="30" as="geometry"/>
                </mxCell>
                <mxCell id="97" value="email" style="text;strokeColor=#314354;fillColor=#647687;align=left;verticalAlign=top;spacingLeft=4;spacingRight=4;overflow=hidden;rotatable=0;points=[[0,0.5],[1,0.5]];portConstraint=eastwest;whiteSpace=wrap;html=1;labelBorderColor=none;fontSize=17;fontColor=#ffffff;strokeWidth=3;" parent="2" vertex="1">
                    <mxGeometry y="150" width="230" height="26" as="geometry"/>
                </mxCell>
                <mxCell id="98" value="address" style="text;strokeColor=#314354;fillColor=#647687;align=left;verticalAlign=middle;spacingLeft=4;spacingRight=4;overflow=hidden;points=[[0,0.5],[1,0.5]];portConstraint=eastwest;rotatable=0;whiteSpace=wrap;html=1;labelBorderColor=none;fontSize=17;fontColor=#ffffff;strokeWidth=3;" parent="2" vertex="1">
                    <mxGeometry y="176" width="230" height="30" as="geometry"/>
                </mxCell>
                <mxCell id="87" style="edgeStyle=none;html=1;exitX=0.5;exitY=0;exitDx=0;exitDy=0;entryX=0.281;entryY=1.122;entryDx=0;entryDy=0;entryPerimeter=0;rounded=1;strokeWidth=3;endArrow=ERmany;endFill=0;fontSize=17;labelBorderColor=none;fillColor=#647687;strokeColor=#314354;" parent="1" source="8" target="95" edge="1">
                    <mxGeometry relative="1" as="geometry"/>
                </mxCell>
                <mxCell id="90" style="edgeStyle=none;html=1;exitX=0.25;exitY=0;exitDx=0;exitDy=0;entryX=1;entryY=0.5;entryDx=0;entryDy=0;rounded=1;strokeWidth=3;endArrow=ERmany;endFill=0;fontSize=17;labelBorderColor=none;fillColor=#647687;strokeColor=#314354;" parent="1" source="8" target="96" edge="1">
                    <mxGeometry relative="1" as="geometry"/>
                </mxCell>
                <mxCell id="93" style="edgeStyle=none;html=1;exitX=0.5;exitY=0;exitDx=0;exitDy=0;entryX=0.25;entryY=1;entryDx=0;entryDy=0;rounded=1;strokeWidth=3;endArrow=ERmany;endFill=0;fontSize=17;labelBorderColor=none;fillColor=#647687;strokeColor=#314354;" parent="1" source="8" target="58" edge="1">
                    <mxGeometry relative="1" as="geometry"/>
                </mxCell>
                <mxCell id="8" value="Doctor" style="swimlane;fontStyle=0;childLayout=stackLayout;horizontal=1;startSize=30;horizontalStack=0;resizeParent=1;resizeParentMax=0;resizeLast=0;collapsible=1;marginBottom=0;whiteSpace=wrap;html=1;rounded=1;strokeWidth=3;fontSize=17;labelBorderColor=none;fillColor=#647687;fontColor=#ffffff;strokeColor=#314354;" parent="1" vertex="1">
                    <mxGeometry x="450" y="-600" width="230" height="206" as="geometry"/>
                </mxCell>
                <mxCell id="99" value="#doctor_id" style="text;align=left;verticalAlign=middle;spacingLeft=4;spacingRight=4;overflow=hidden;points=[[0,0.5],[1,0.5]];portConstraint=eastwest;rotatable=0;whiteSpace=wrap;html=1;rounded=1;strokeWidth=3;fontSize=17;labelBorderColor=none;fillColor=#647687;fontColor=#ffffff;strokeColor=#314354;" parent="8" vertex="1">
                    <mxGeometry y="30" width="230" height="30" as="geometry"/>
                </mxCell>
                <mxCell id="100" value="name" style="text;align=left;verticalAlign=middle;spacingLeft=4;spacingRight=4;overflow=hidden;points=[[0,0.5],[1,0.5]];portConstraint=eastwest;rotatable=0;whiteSpace=wrap;html=1;rounded=1;strokeWidth=3;fontSize=17;labelBorderColor=none;fillColor=#647687;fontColor=#ffffff;strokeColor=#314354;" parent="8" vertex="1">
                    <mxGeometry y="60" width="230" height="30" as="geometry"/>
                </mxCell>
                <mxCell id="103" value="address" style="text;strokeColor=#314354;fillColor=#647687;align=left;verticalAlign=middle;spacingLeft=4;spacingRight=4;overflow=hidden;points=[[0,0.5],[1,0.5]];portConstraint=eastwest;rotatable=0;whiteSpace=wrap;html=1;labelBorderColor=none;fontSize=17;fontColor=#ffffff;strokeWidth=3;" parent="8" vertex="1">
                    <mxGeometry y="90" width="230" height="30" as="geometry"/>
                </mxCell>
                <mxCell id="102" value="email" style="text;strokeColor=#314354;fillColor=#647687;align=left;verticalAlign=top;spacingLeft=4;spacingRight=4;overflow=hidden;rotatable=0;points=[[0,0.5],[1,0.5]];portConstraint=eastwest;whiteSpace=wrap;html=1;labelBorderColor=none;fontSize=17;fontColor=#ffffff;strokeWidth=3;" parent="8" vertex="1">
                    <mxGeometry y="120" width="230" height="26" as="geometry"/>
                </mxCell>
                <mxCell id="101" value="phone" style="text;align=left;verticalAlign=middle;spacingLeft=4;spacingRight=4;overflow=hidden;points=[[0,0.5],[1,0.5]];portConstraint=eastwest;rotatable=0;whiteSpace=wrap;html=1;rounded=1;strokeWidth=3;fontSize=17;labelBorderColor=none;fillColor=#647687;fontColor=#ffffff;strokeColor=#314354;" parent="8" vertex="1">
                    <mxGeometry y="146" width="230" height="30" as="geometry"/>
                </mxCell>
                <mxCell id="11" value="gender" style="text;align=left;verticalAlign=middle;spacingLeft=4;spacingRight=4;overflow=hidden;points=[[0,0.5],[1,0.5]];portConstraint=eastwest;rotatable=0;whiteSpace=wrap;html=1;rounded=1;strokeWidth=3;fontSize=17;labelBorderColor=none;fillColor=#647687;fontColor=#ffffff;strokeColor=#314354;" parent="8" vertex="1">
                    <mxGeometry y="176" width="230" height="30" as="geometry"/>
                </mxCell>
                <mxCell id="13" value="Radilogy Center" style="swimlane;fontStyle=0;childLayout=stackLayout;horizontal=1;startSize=30;horizontalStack=0;resizeParent=1;resizeParentMax=0;resizeLast=0;collapsible=1;marginBottom=0;whiteSpace=wrap;html=1;rounded=1;strokeWidth=3;fontSize=17;labelBorderColor=none;fillColor=#647687;fontColor=#ffffff;strokeColor=#314354;" parent="1" vertex="1">
                    <mxGeometry x="-110" y="-590" width="230" height="176" as="geometry"/>
                </mxCell>
                <mxCell id="112" value="#radiology_center_id" style="text;align=left;verticalAlign=middle;spacingLeft=4;spacingRight=4;overflow=hidden;points=[[0,0.5],[1,0.5]];portConstraint=eastwest;rotatable=0;whiteSpace=wrap;html=1;rounded=1;strokeWidth=3;fontSize=17;labelBorderColor=none;fillColor=#647687;fontColor=#ffffff;strokeColor=#314354;" parent="13" vertex="1">
                    <mxGeometry y="30" width="230" height="30" as="geometry"/>
                </mxCell>
                <mxCell id="115" value="address" style="text;strokeColor=#314354;fillColor=#647687;align=left;verticalAlign=middle;spacingLeft=4;spacingRight=4;overflow=hidden;points=[[0,0.5],[1,0.5]];portConstraint=eastwest;rotatable=0;whiteSpace=wrap;html=1;labelBorderColor=none;fontSize=17;fontColor=#ffffff;strokeWidth=3;" parent="13" vertex="1">
                    <mxGeometry y="60" width="230" height="30" as="geometry"/>
                </mxCell>
                <mxCell id="114" value="email" style="text;strokeColor=#314354;fillColor=#647687;align=left;verticalAlign=top;spacingLeft=4;spacingRight=4;overflow=hidden;rotatable=0;points=[[0,0.5],[1,0.5]];portConstraint=eastwest;whiteSpace=wrap;html=1;labelBorderColor=none;fontSize=17;fontColor=#ffffff;strokeWidth=3;" parent="13" vertex="1">
                    <mxGeometry y="90" width="230" height="26" as="geometry"/>
                </mxCell>
                <mxCell id="113" value="name" style="text;align=left;verticalAlign=middle;spacingLeft=4;spacingRight=4;overflow=hidden;points=[[0,0.5],[1,0.5]];portConstraint=eastwest;rotatable=0;whiteSpace=wrap;html=1;rounded=1;strokeWidth=3;fontSize=17;labelBorderColor=none;fillColor=#647687;fontColor=#ffffff;strokeColor=#314354;" parent="13" vertex="1">
                    <mxGeometry y="116" width="230" height="30" as="geometry"/>
                </mxCell>
                <mxCell id="116" value="phone" style="text;align=left;verticalAlign=middle;spacingLeft=4;spacingRight=4;overflow=hidden;points=[[0,0.5],[1,0.5]];portConstraint=eastwest;rotatable=0;whiteSpace=wrap;html=1;rounded=1;strokeWidth=3;fontSize=17;labelBorderColor=none;fillColor=#647687;fontColor=#ffffff;strokeColor=#314354;" parent="13" vertex="1">
                    <mxGeometry y="146" width="230" height="30" as="geometry"/>
                </mxCell>
                <mxCell id="76" style="edgeStyle=none;html=1;exitX=1;exitY=0.5;exitDx=0;exitDy=0;entryX=0.368;entryY=1.178;entryDx=0;entryDy=0;entryPerimeter=0;rounded=1;strokeWidth=3;endArrow=ERmany;endFill=0;fontSize=17;labelBorderColor=none;fillColor=#647687;strokeColor=#314354;" parent="1" target="125" edge="1">
                    <mxGeometry relative="1" as="geometry">
                        <mxPoint x="540" y="245" as="sourcePoint"/>
                        <mxPoint x="829.9299999999998" y="-40" as="targetPoint"/>
                    </mxGeometry>
                </mxCell>
                <mxCell id="77" style="edgeStyle=none;html=1;exitX=0.25;exitY=0;exitDx=0;exitDy=0;entryX=0.477;entryY=1.178;entryDx=0;entryDy=0;entryPerimeter=0;rounded=1;strokeWidth=3;endArrow=ERmany;endFill=0;fontSize=17;labelBorderColor=none;fillColor=#647687;strokeColor=#314354;" parent="1" source="18" target="131" edge="1">
                    <mxGeometry relative="1" as="geometry">
                        <mxPoint x="275.67999999999984" y="-24.420000000000073" as="targetPoint"/>
                    </mxGeometry>
                </mxCell>
                <mxCell id="78" style="edgeStyle=none;html=1;exitX=0;exitY=0.5;exitDx=0;exitDy=0;entryX=0.522;entryY=1.09;entryDx=0;entryDy=0;entryPerimeter=0;rounded=1;strokeWidth=3;endArrow=ERmany;endFill=0;fontSize=17;labelBorderColor=none;fillColor=#647687;strokeColor=#314354;" parent="1" edge="1">
                    <mxGeometry relative="1" as="geometry">
                        <mxPoint x="310" y="215" as="sourcePoint"/>
                        <mxPoint x="0.06000000000040018" y="-117.30000000000018" as="targetPoint"/>
                    </mxGeometry>
                </mxCell>
                <mxCell id="18" value="Reciptianiest" style="swimlane;fontStyle=0;childLayout=stackLayout;horizontal=1;startSize=30;horizontalStack=0;resizeParent=1;resizeParentMax=0;resizeLast=0;collapsible=1;marginBottom=0;whiteSpace=wrap;html=1;rounded=1;strokeWidth=3;fontSize=17;labelBorderColor=none;fillColor=#647687;fontColor=#ffffff;strokeColor=#314354;" parent="1" vertex="1">
                    <mxGeometry x="310" y="170" width="230" height="206" as="geometry"/>
                </mxCell>
                <mxCell id="119" value="#resciptainest_id" style="text;align=left;verticalAlign=middle;spacingLeft=4;spacingRight=4;overflow=hidden;points=[[0,0.5],[1,0.5]];portConstraint=eastwest;rotatable=0;whiteSpace=wrap;html=1;rounded=1;strokeWidth=3;fontSize=17;labelBorderColor=none;fillColor=#647687;fontColor=#ffffff;strokeColor=#314354;" parent="18" vertex="1">
                    <mxGeometry y="30" width="230" height="30" as="geometry"/>
                </mxCell>
                <mxCell id="124" value="name" style="text;align=left;verticalAlign=middle;spacingLeft=4;spacingRight=4;overflow=hidden;points=[[0,0.5],[1,0.5]];portConstraint=eastwest;rotatable=0;whiteSpace=wrap;html=1;rounded=1;strokeWidth=3;fontSize=17;labelBorderColor=none;fillColor=#647687;fontColor=#ffffff;strokeColor=#314354;" parent="18" vertex="1">
                    <mxGeometry y="60" width="230" height="30" as="geometry"/>
                </mxCell>
                <mxCell id="120" value="gender" style="text;align=left;verticalAlign=middle;spacingLeft=4;spacingRight=4;overflow=hidden;points=[[0,0.5],[1,0.5]];portConstraint=eastwest;rotatable=0;whiteSpace=wrap;html=1;rounded=1;strokeWidth=3;fontSize=17;labelBorderColor=none;fillColor=#647687;fontColor=#ffffff;strokeColor=#314354;" parent="18" vertex="1">
                    <mxGeometry y="90" width="230" height="30" as="geometry"/>
                </mxCell>
                <mxCell id="121" value="phone" style="text;align=left;verticalAlign=middle;spacingLeft=4;spacingRight=4;overflow=hidden;points=[[0,0.5],[1,0.5]];portConstraint=eastwest;rotatable=0;whiteSpace=wrap;html=1;rounded=1;strokeWidth=3;fontSize=17;labelBorderColor=none;fillColor=#647687;fontColor=#ffffff;strokeColor=#314354;" parent="18" vertex="1">
                    <mxGeometry y="120" width="230" height="30" as="geometry"/>
                </mxCell>
                <mxCell id="123" value="address" style="text;strokeColor=#314354;fillColor=#647687;align=left;verticalAlign=middle;spacingLeft=4;spacingRight=4;overflow=hidden;points=[[0,0.5],[1,0.5]];portConstraint=eastwest;rotatable=0;whiteSpace=wrap;html=1;labelBorderColor=none;fontSize=17;fontColor=#ffffff;strokeWidth=3;" parent="18" vertex="1">
                    <mxGeometry y="150" width="230" height="30" as="geometry"/>
                </mxCell>
                <mxCell id="122" value="email" style="text;strokeColor=#314354;fillColor=#647687;align=left;verticalAlign=top;spacingLeft=4;spacingRight=4;overflow=hidden;rotatable=0;points=[[0,0.5],[1,0.5]];portConstraint=eastwest;whiteSpace=wrap;html=1;labelBorderColor=none;fontSize=17;fontColor=#ffffff;strokeWidth=3;" parent="18" vertex="1">
                    <mxGeometry y="180" width="230" height="26" as="geometry"/>
                </mxCell>
                <mxCell id="91" style="edgeStyle=none;html=1;exitX=0.25;exitY=0;exitDx=0;exitDy=0;entryX=0.75;entryY=1;entryDx=0;entryDy=0;rounded=1;strokeWidth=3;endArrow=ERmany;endFill=0;fontSize=17;labelBorderColor=none;fillColor=#647687;strokeColor=#314354;" parent="1" source="23" target="53" edge="1">
                    <mxGeometry relative="1" as="geometry"/>
                </mxCell>
                <mxCell id="23" value="Radiologiest" style="swimlane;fontStyle=0;childLayout=stackLayout;horizontal=1;startSize=30;horizontalStack=0;resizeParent=1;resizeParentMax=0;resizeLast=0;collapsible=1;marginBottom=0;whiteSpace=wrap;html=1;rounded=1;strokeWidth=3;fontSize=17;labelBorderColor=none;fillColor=#647687;fontColor=#ffffff;strokeColor=#314354;" parent="1" vertex="1">
                    <mxGeometry x="180" y="-600" width="230" height="206" as="geometry"/>
                </mxCell>
                <mxCell id="106" value="#radiologiest_id" style="text;align=left;verticalAlign=middle;spacingLeft=4;spacingRight=4;overflow=hidden;points=[[0,0.5],[1,0.5]];portConstraint=eastwest;rotatable=0;whiteSpace=wrap;html=1;rounded=1;strokeWidth=3;fontSize=17;labelBorderColor=none;fillColor=#647687;fontColor=#ffffff;strokeColor=#314354;" parent="23" vertex="1">
                    <mxGeometry y="30" width="230" height="30" as="geometry"/>
                </mxCell>
                <mxCell id="111" value="name" style="text;align=left;verticalAlign=middle;spacingLeft=4;spacingRight=4;overflow=hidden;points=[[0,0.5],[1,0.5]];portConstraint=eastwest;rotatable=0;whiteSpace=wrap;html=1;rounded=1;strokeWidth=3;fontSize=17;labelBorderColor=none;fillColor=#647687;fontColor=#ffffff;strokeColor=#314354;" parent="23" vertex="1">
                    <mxGeometry y="60" width="230" height="30" as="geometry"/>
                </mxCell>
                <mxCell id="110" value="gender" style="text;align=left;verticalAlign=middle;spacingLeft=4;spacingRight=4;overflow=hidden;points=[[0,0.5],[1,0.5]];portConstraint=eastwest;rotatable=0;whiteSpace=wrap;html=1;rounded=1;strokeWidth=3;fontSize=17;labelBorderColor=none;fillColor=#647687;fontColor=#ffffff;strokeColor=#314354;" parent="23" vertex="1">
                    <mxGeometry y="90" width="230" height="30" as="geometry"/>
                </mxCell>
                <mxCell id="109" value="phone" style="text;align=left;verticalAlign=middle;spacingLeft=4;spacingRight=4;overflow=hidden;points=[[0,0.5],[1,0.5]];portConstraint=eastwest;rotatable=0;whiteSpace=wrap;html=1;rounded=1;strokeWidth=3;fontSize=17;labelBorderColor=none;fillColor=#647687;fontColor=#ffffff;strokeColor=#314354;" parent="23" vertex="1">
                    <mxGeometry y="120" width="230" height="30" as="geometry"/>
                </mxCell>
                <mxCell id="108" value="email" style="text;strokeColor=#314354;fillColor=#647687;align=left;verticalAlign=top;spacingLeft=4;spacingRight=4;overflow=hidden;rotatable=0;points=[[0,0.5],[1,0.5]];portConstraint=eastwest;whiteSpace=wrap;html=1;labelBorderColor=none;fontSize=17;fontColor=#ffffff;strokeWidth=3;" parent="23" vertex="1">
                    <mxGeometry y="150" width="230" height="26" as="geometry"/>
                </mxCell>
                <mxCell id="107" value="address" style="text;strokeColor=#314354;fillColor=#647687;align=left;verticalAlign=middle;spacingLeft=4;spacingRight=4;overflow=hidden;points=[[0,0.5],[1,0.5]];portConstraint=eastwest;rotatable=0;whiteSpace=wrap;html=1;labelBorderColor=none;fontSize=17;fontColor=#ffffff;strokeWidth=3;" parent="23" vertex="1">
                    <mxGeometry y="176" width="230" height="30" as="geometry"/>
                </mxCell>
                <mxCell id="28" value="Reciptianiest_Patient" style="swimlane;fontStyle=0;childLayout=stackLayout;horizontal=1;startSize=30;horizontalStack=0;resizeParent=1;resizeParentMax=0;resizeLast=0;collapsible=1;marginBottom=0;whiteSpace=wrap;html=1;rounded=1;strokeWidth=3;fontSize=17;labelBorderColor=none;fillColor=#647687;fontColor=#ffffff;strokeColor=#314354;" parent="1" vertex="1">
                    <mxGeometry x="740" y="-180" width="230" height="90" as="geometry"/>
                </mxCell>
                <mxCell id="117" value="#patient_id" style="text;align=left;verticalAlign=middle;spacingLeft=4;spacingRight=4;overflow=hidden;points=[[0,0.5],[1,0.5]];portConstraint=eastwest;rotatable=0;whiteSpace=wrap;html=1;rounded=1;strokeWidth=3;fontSize=17;labelBorderColor=none;fillColor=#647687;fontColor=#ffffff;strokeColor=#314354;" parent="28" vertex="1">
                    <mxGeometry y="30" width="230" height="30" as="geometry"/>
                </mxCell>
                <mxCell id="125" value="#resciptainest_id" style="text;align=left;verticalAlign=middle;spacingLeft=4;spacingRight=4;overflow=hidden;points=[[0,0.5],[1,0.5]];portConstraint=eastwest;rotatable=0;whiteSpace=wrap;html=1;rounded=1;strokeWidth=3;fontSize=17;labelBorderColor=none;fillColor=#647687;fontColor=#ffffff;strokeColor=#314354;" parent="28" vertex="1">
                    <mxGeometry y="60" width="230" height="30" as="geometry"/>
                </mxCell>
                <mxCell id="33" value="Reciptianiest_Doctor" style="swimlane;fontStyle=0;childLayout=stackLayout;horizontal=1;startSize=30;horizontalStack=0;resizeParent=1;resizeParentMax=0;resizeLast=0;collapsible=1;marginBottom=0;whiteSpace=wrap;html=1;rounded=1;strokeWidth=3;fontSize=17;labelBorderColor=none;fillColor=#647687;fontColor=#ffffff;strokeColor=#314354;" parent="1" vertex="1">
                    <mxGeometry x="460" y="-210" width="230" height="90" as="geometry"/>
                </mxCell>
                <mxCell id="126" value="#doctor_id" style="text;align=left;verticalAlign=middle;spacingLeft=4;spacingRight=4;overflow=hidden;points=[[0,0.5],[1,0.5]];portConstraint=eastwest;rotatable=0;whiteSpace=wrap;html=1;rounded=1;strokeWidth=3;fontSize=17;labelBorderColor=none;fillColor=#647687;fontColor=#ffffff;strokeColor=#314354;" parent="33" vertex="1">
                    <mxGeometry y="30" width="230" height="30" as="geometry"/>
                </mxCell>
                <mxCell id="127" value="#resciptainest_id" style="text;align=left;verticalAlign=middle;spacingLeft=4;spacingRight=4;overflow=hidden;points=[[0,0.5],[1,0.5]];portConstraint=eastwest;rotatable=0;whiteSpace=wrap;html=1;rounded=1;strokeWidth=3;fontSize=17;labelBorderColor=none;fillColor=#647687;fontColor=#ffffff;strokeColor=#314354;" parent="33" vertex="1">
                    <mxGeometry y="60" width="230" height="30" as="geometry"/>
                </mxCell>
                <mxCell id="38" value="Reciptianiest_Radilogy_Center" style="swimlane;fontStyle=0;childLayout=stackLayout;horizontal=1;startSize=30;horizontalStack=0;resizeParent=1;resizeParentMax=0;resizeLast=0;collapsible=1;marginBottom=0;whiteSpace=wrap;html=1;rounded=1;strokeWidth=3;fontSize=17;labelBorderColor=none;fillColor=#647687;fontColor=#ffffff;strokeColor=#314354;" parent="1" vertex="1">
                    <mxGeometry x="-120" y="-210" width="230" height="90" as="geometry"/>
                </mxCell>
                <mxCell id="129" value="#resciptainest_id" style="text;align=left;verticalAlign=middle;spacingLeft=4;spacingRight=4;overflow=hidden;points=[[0,0.5],[1,0.5]];portConstraint=eastwest;rotatable=0;whiteSpace=wrap;html=1;rounded=1;strokeWidth=3;fontSize=17;labelBorderColor=none;fillColor=#647687;fontColor=#ffffff;strokeColor=#314354;" parent="38" vertex="1">
                    <mxGeometry y="30" width="230" height="30" as="geometry"/>
                </mxCell>
                <mxCell id="130" value="#radiology_center_id" style="text;align=left;verticalAlign=middle;spacingLeft=4;spacingRight=4;overflow=hidden;points=[[0,0.5],[1,0.5]];portConstraint=eastwest;rotatable=0;whiteSpace=wrap;html=1;rounded=1;strokeWidth=3;fontSize=17;labelBorderColor=none;fillColor=#647687;fontColor=#ffffff;strokeColor=#314354;" parent="38" vertex="1">
                    <mxGeometry y="60" width="230" height="30" as="geometry"/>
                </mxCell>
                <mxCell id="43" value="Reciptianiest_Radiologiest" style="swimlane;fontStyle=0;childLayout=stackLayout;horizontal=1;startSize=30;horizontalStack=0;resizeParent=1;resizeParentMax=0;resizeLast=0;collapsible=1;marginBottom=0;whiteSpace=wrap;html=1;rounded=1;strokeWidth=3;fontSize=17;labelBorderColor=none;fillColor=#647687;fontColor=#ffffff;strokeColor=#314354;" parent="1" vertex="1">
                    <mxGeometry x="180" y="-210" width="230" height="90" as="geometry"/>
                </mxCell>
                <mxCell id="128" value="#resciptainest_id" style="text;align=left;verticalAlign=middle;spacingLeft=4;spacingRight=4;overflow=hidden;points=[[0,0.5],[1,0.5]];portConstraint=eastwest;rotatable=0;whiteSpace=wrap;html=1;rounded=1;strokeWidth=3;fontSize=17;labelBorderColor=none;fillColor=#647687;fontColor=#ffffff;strokeColor=#314354;" parent="43" vertex="1">
                    <mxGeometry y="30" width="230" height="30" as="geometry"/>
                </mxCell>
                <mxCell id="131" value="#radiologiest_id" style="text;align=left;verticalAlign=middle;spacingLeft=4;spacingRight=4;overflow=hidden;points=[[0,0.5],[1,0.5]];portConstraint=eastwest;rotatable=0;whiteSpace=wrap;html=1;rounded=1;strokeWidth=3;fontSize=17;labelBorderColor=none;fillColor=#647687;fontColor=#ffffff;strokeColor=#314354;" parent="43" vertex="1">
                    <mxGeometry y="60" width="230" height="30" as="geometry"/>
                </mxCell>
                <mxCell id="48" value="Precription" style="swimlane;fontStyle=0;childLayout=stackLayout;horizontal=1;startSize=30;horizontalStack=0;resizeParent=1;resizeParentMax=0;resizeLast=0;collapsible=1;marginBottom=0;whiteSpace=wrap;html=1;rounded=1;strokeWidth=3;fontSize=17;labelBorderColor=none;fillColor=#647687;fontColor=#ffffff;strokeColor=#314354;" parent="1" vertex="1">
                    <mxGeometry x="820" y="-1090" width="230" height="180" as="geometry"/>
                </mxCell>
                <mxCell id="49" value="#prescripton_id" style="text;align=left;verticalAlign=middle;spacingLeft=4;spacingRight=4;overflow=hidden;points=[[0,0.5],[1,0.5]];portConstraint=eastwest;rotatable=0;whiteSpace=wrap;html=1;rounded=1;strokeWidth=3;fontSize=17;labelBorderColor=none;fillColor=#647687;fontColor=#ffffff;strokeColor=#314354;" parent="48" vertex="1">
                    <mxGeometry y="30" width="230" height="30" as="geometry"/>
                </mxCell>
                <mxCell id="50" value="#doctor_id" style="text;align=left;verticalAlign=middle;spacingLeft=4;spacingRight=4;overflow=hidden;points=[[0,0.5],[1,0.5]];portConstraint=eastwest;rotatable=0;whiteSpace=wrap;html=1;rounded=1;strokeWidth=3;fontSize=17;labelBorderColor=none;fillColor=#647687;fontColor=#ffffff;strokeColor=#314354;" parent="48" vertex="1">
                    <mxGeometry y="60" width="230" height="30" as="geometry"/>
                </mxCell>
                <mxCell id="51" value="#patient_id" style="text;align=left;verticalAlign=middle;spacingLeft=4;spacingRight=4;overflow=hidden;points=[[0,0.5],[1,0.5]];portConstraint=eastwest;rotatable=0;whiteSpace=wrap;html=1;rounded=1;strokeWidth=3;fontSize=17;labelBorderColor=none;fillColor=#647687;fontColor=#ffffff;strokeColor=#314354;" parent="48" vertex="1">
                    <mxGeometry y="90" width="230" height="30" as="geometry"/>
                </mxCell>
                <mxCell id="52" value="date" style="text;align=left;verticalAlign=middle;spacingLeft=4;spacingRight=4;overflow=hidden;points=[[0,0.5],[1,0.5]];portConstraint=eastwest;rotatable=0;whiteSpace=wrap;html=1;rounded=1;strokeWidth=3;fontSize=17;labelBorderColor=none;fillColor=#647687;fontColor=#ffffff;strokeColor=#314354;" parent="48" vertex="1">
                    <mxGeometry y="120" width="230" height="30" as="geometry"/>
                </mxCell>
                <mxCell id="95" value="drug" style="text;strokeColor=#314354;fillColor=#647687;align=left;verticalAlign=middle;spacingLeft=4;spacingRight=4;overflow=hidden;points=[[0,0.5],[1,0.5]];portConstraint=eastwest;rotatable=0;whiteSpace=wrap;html=1;labelBorderColor=none;fontSize=17;fontColor=#ffffff;strokeWidth=3;" parent="48" vertex="1">
                    <mxGeometry y="150" width="230" height="30" as="geometry"/>
                </mxCell>
                <mxCell id="53" value="Report" style="swimlane;fontStyle=0;childLayout=stackLayout;horizontal=1;startSize=30;horizontalStack=0;resizeParent=1;resizeParentMax=0;resizeLast=0;collapsible=1;marginBottom=0;whiteSpace=wrap;html=1;rounded=1;strokeWidth=3;fontSize=17;labelBorderColor=none;fillColor=#647687;fontColor=#ffffff;strokeColor=#314354;" parent="1" vertex="1">
                    <mxGeometry x="-170" y="-1066" width="230" height="210" as="geometry"/>
                </mxCell>
                <mxCell id="54" value="#report_id" style="text;align=left;verticalAlign=middle;spacingLeft=4;spacingRight=4;overflow=hidden;points=[[0,0.5],[1,0.5]];portConstraint=eastwest;rotatable=0;whiteSpace=wrap;html=1;rounded=1;strokeWidth=3;fontSize=17;labelBorderColor=none;fillColor=#647687;fontColor=#ffffff;strokeColor=#314354;" parent="53" vertex="1">
                    <mxGeometry y="30" width="230" height="30" as="geometry"/>
                </mxCell>
                <mxCell id="55" value="#radiologiest_id" style="text;align=left;verticalAlign=middle;spacingLeft=4;spacingRight=4;overflow=hidden;points=[[0,0.5],[1,0.5]];portConstraint=eastwest;rotatable=0;whiteSpace=wrap;html=1;rounded=1;strokeWidth=3;fontSize=17;labelBorderColor=none;fillColor=#647687;fontColor=#ffffff;strokeColor=#314354;" parent="53" vertex="1">
                    <mxGeometry y="60" width="230" height="30" as="geometry"/>
                </mxCell>
                <mxCell id="56" value="#doctor_id" style="text;align=left;verticalAlign=middle;spacingLeft=4;spacingRight=4;overflow=hidden;points=[[0,0.5],[1,0.5]];portConstraint=eastwest;rotatable=0;whiteSpace=wrap;html=1;rounded=1;strokeWidth=3;fontSize=17;labelBorderColor=none;fillColor=#647687;fontColor=#ffffff;strokeColor=#314354;" parent="53" vertex="1">
                    <mxGeometry y="90" width="230" height="30" as="geometry"/>
                </mxCell>
                <mxCell id="181" value="#patient_id" style="text;align=left;verticalAlign=middle;spacingLeft=4;spacingRight=4;overflow=hidden;points=[[0,0.5],[1,0.5]];portConstraint=eastwest;rotatable=0;whiteSpace=wrap;html=1;rounded=1;strokeWidth=3;fontSize=17;labelBorderColor=none;fillColor=#647687;fontColor=#ffffff;strokeColor=#314354;" parent="53" vertex="1">
                    <mxGeometry y="120" width="230" height="30" as="geometry"/>
                </mxCell>
                <mxCell id="57" value="date" style="text;align=left;verticalAlign=middle;spacingLeft=4;spacingRight=4;overflow=hidden;points=[[0,0.5],[1,0.5]];portConstraint=eastwest;rotatable=0;whiteSpace=wrap;html=1;rounded=1;strokeWidth=3;fontSize=17;labelBorderColor=none;fillColor=#647687;fontColor=#ffffff;strokeColor=#314354;" parent="53" vertex="1">
                    <mxGeometry y="150" width="230" height="30" as="geometry"/>
                </mxCell>
                <mxCell id="96" value="details" style="text;strokeColor=#314354;fillColor=#647687;align=left;verticalAlign=middle;spacingLeft=4;spacingRight=4;overflow=hidden;points=[[0,0.5],[1,0.5]];portConstraint=eastwest;rotatable=0;whiteSpace=wrap;html=1;labelBorderColor=none;fontSize=17;fontColor=#ffffff;strokeWidth=3;" parent="53" vertex="1">
                    <mxGeometry y="180" width="230" height="30" as="geometry"/>
                </mxCell>
                <mxCell id="58" value="Appointment" style="swimlane;fontStyle=0;childLayout=stackLayout;horizontal=1;startSize=30;horizontalStack=0;resizeParent=1;resizeParentMax=0;resizeLast=0;collapsible=1;marginBottom=0;whiteSpace=wrap;html=1;rounded=1;strokeWidth=3;fontSize=17;labelBorderColor=none;fillColor=#647687;fontColor=#ffffff;strokeColor=#314354;" parent="1" vertex="1">
                    <mxGeometry x="500" y="-1330" width="230" height="210" as="geometry"/>
                </mxCell>
                <mxCell id="183" value="#appointment_id" style="text;align=left;verticalAlign=middle;spacingLeft=4;spacingRight=4;overflow=hidden;points=[[0,0.5],[1,0.5]];portConstraint=eastwest;rotatable=0;whiteSpace=wrap;html=1;rounded=1;strokeWidth=3;fontSize=17;labelBorderColor=none;fillColor=#647687;fontColor=#ffffff;strokeColor=#314354;" vertex="1" parent="58">
                    <mxGeometry y="30" width="230" height="30" as="geometry"/>
                </mxCell>
                <mxCell id="59" value="#doctor_id" style="text;align=left;verticalAlign=middle;spacingLeft=4;spacingRight=4;overflow=hidden;points=[[0,0.5],[1,0.5]];portConstraint=eastwest;rotatable=0;whiteSpace=wrap;html=1;rounded=1;strokeWidth=3;fontSize=17;labelBorderColor=none;fillColor=#647687;fontColor=#ffffff;strokeColor=#314354;" parent="58" vertex="1">
                    <mxGeometry y="60" width="230" height="30" as="geometry"/>
                </mxCell>
                <mxCell id="60" value="#user_id" style="text;align=left;verticalAlign=middle;spacingLeft=4;spacingRight=4;overflow=hidden;points=[[0,0.5],[1,0.5]];portConstraint=eastwest;rotatable=0;whiteSpace=wrap;html=1;rounded=1;strokeWidth=3;fontSize=17;labelBorderColor=none;fillColor=#647687;fontColor=#ffffff;strokeColor=#314354;" parent="58" vertex="1">
                    <mxGeometry y="90" width="230" height="30" as="geometry"/>
                </mxCell>
                <mxCell id="61" value="date" style="text;align=left;verticalAlign=middle;spacingLeft=4;spacingRight=4;overflow=hidden;points=[[0,0.5],[1,0.5]];portConstraint=eastwest;rotatable=0;whiteSpace=wrap;html=1;rounded=1;strokeWidth=3;fontSize=17;labelBorderColor=none;fillColor=#647687;fontColor=#ffffff;strokeColor=#314354;" parent="58" vertex="1">
                    <mxGeometry y="120" width="230" height="30" as="geometry"/>
                </mxCell>
                <mxCell id="62" value="time" style="text;align=left;verticalAlign=middle;spacingLeft=4;spacingRight=4;overflow=hidden;points=[[0,0.5],[1,0.5]];portConstraint=eastwest;rotatable=0;whiteSpace=wrap;html=1;rounded=1;strokeWidth=3;fontSize=17;labelBorderColor=none;fillColor=#647687;fontColor=#ffffff;strokeColor=#314354;" parent="58" vertex="1">
                    <mxGeometry y="150" width="230" height="30" as="geometry"/>
                </mxCell>
                <mxCell id="182" value="type" style="text;align=left;verticalAlign=middle;spacingLeft=4;spacingRight=4;overflow=hidden;points=[[0,0.5],[1,0.5]];portConstraint=eastwest;rotatable=0;whiteSpace=wrap;html=1;rounded=1;strokeWidth=3;fontSize=17;labelBorderColor=none;fillColor=#647687;fontColor=#ffffff;strokeColor=#314354;" vertex="1" parent="58">
                    <mxGeometry y="180" width="230" height="30" as="geometry"/>
                </mxCell>
                <mxCell id="79" style="edgeStyle=none;html=1;exitX=0.75;exitY=0;exitDx=0;exitDy=0;entryX=0.477;entryY=1.178;entryDx=0;entryDy=0;entryPerimeter=0;rounded=1;strokeWidth=3;endArrow=ERmany;endFill=0;fontSize=17;labelBorderColor=none;fillColor=#647687;strokeColor=#314354;" parent="1" source="18" target="127" edge="1">
                    <mxGeometry relative="1" as="geometry">
                        <mxPoint x="589.9499999999998" y="-20.01000000000022" as="targetPoint"/>
                    </mxGeometry>
                </mxCell>
                <mxCell id="82" style="edgeStyle=none;html=1;entryX=0.5;entryY=0;entryDx=0;entryDy=0;rounded=1;strokeWidth=3;endArrow=ERmany;endFill=0;fontSize=17;labelBorderColor=none;exitX=0.491;exitY=1.2;exitDx=0;exitDy=0;exitPerimeter=0;fillColor=#647687;strokeColor=#314354;" parent="1" source="107" target="43" edge="1">
                    <mxGeometry relative="1" as="geometry">
                        <mxPoint x="295" y="-274" as="sourcePoint"/>
                    </mxGeometry>
                </mxCell>
                <mxCell id="83" style="edgeStyle=none;html=1;entryX=0.5;entryY=0;entryDx=0;entryDy=0;rounded=1;strokeWidth=3;fontSize=17;labelBorderColor=none;fillColor=#647687;strokeColor=#314354;" parent="1" source="116" target="38" edge="1">
                    <mxGeometry relative="1" as="geometry">
                        <mxPoint x="3.920863309352626" y="-334" as="sourcePoint"/>
                    </mxGeometry>
                </mxCell>
                <mxCell id="84" style="edgeStyle=none;html=1;entryX=0.5;entryY=0;entryDx=0;entryDy=0;rounded=1;strokeWidth=3;endArrow=ERmany;endFill=0;fontSize=17;labelBorderColor=none;exitX=0.462;exitY=1.089;exitDx=0;exitDy=0;exitPerimeter=0;fillColor=#647687;strokeColor=#314354;" parent="1" source="11" target="33" edge="1">
                    <mxGeometry relative="1" as="geometry">
                        <mxPoint x="565.8875739644968" y="-364" as="sourcePoint"/>
                    </mxGeometry>
                </mxCell>
                <mxCell id="85" style="edgeStyle=none;html=1;entryX=0.5;entryY=0;entryDx=0;entryDy=0;rounded=1;strokeWidth=3;endArrow=ERmany;endFill=0;fontSize=17;labelBorderColor=none;fillColor=#647687;strokeColor=#314354;" parent="1" source="98" target="28" edge="1">
                    <mxGeometry relative="1" as="geometry">
                        <mxPoint x="990" y="-400" as="sourcePoint"/>
                    </mxGeometry>
                </mxCell>
                <mxCell id="132" value="Guest" style="swimlane;fontStyle=0;childLayout=stackLayout;horizontal=1;startSize=30;horizontalStack=0;resizeParent=1;resizeParentMax=0;resizeLast=0;collapsible=1;marginBottom=0;whiteSpace=wrap;html=1;rounded=1;strokeWidth=3;fontSize=17;labelBorderColor=none;fillColor=#647687;fontColor=#ffffff;strokeColor=#314354;" parent="1" vertex="1">
                    <mxGeometry x="140" y="-1066" width="230" height="206" as="geometry"/>
                </mxCell>
                <mxCell id="133" value="#guest_Id" style="text;align=left;verticalAlign=middle;spacingLeft=4;spacingRight=4;overflow=hidden;points=[[0,0.5],[1,0.5]];portConstraint=eastwest;rotatable=0;whiteSpace=wrap;html=1;rounded=1;strokeWidth=3;fontSize=17;labelBorderColor=none;fillColor=#647687;fontColor=#ffffff;strokeColor=#314354;" parent="132" vertex="1">
                    <mxGeometry y="30" width="230" height="30" as="geometry"/>
                </mxCell>
                <mxCell id="142" value="gender" style="text;align=left;verticalAlign=middle;spacingLeft=4;spacingRight=4;overflow=hidden;points=[[0,0.5],[1,0.5]];portConstraint=eastwest;rotatable=0;whiteSpace=wrap;html=1;rounded=1;strokeWidth=3;fontSize=17;labelBorderColor=none;fillColor=#647687;fontColor=#ffffff;strokeColor=#314354;" parent="132" vertex="1">
                    <mxGeometry y="60" width="230" height="30" as="geometry"/>
                </mxCell>
                <mxCell id="141" value="phone" style="text;align=left;verticalAlign=middle;spacingLeft=4;spacingRight=4;overflow=hidden;points=[[0,0.5],[1,0.5]];portConstraint=eastwest;rotatable=0;whiteSpace=wrap;html=1;rounded=1;strokeWidth=3;fontSize=17;labelBorderColor=none;fillColor=#647687;fontColor=#ffffff;strokeColor=#314354;" parent="132" vertex="1">
                    <mxGeometry y="90" width="230" height="30" as="geometry"/>
                </mxCell>
                <mxCell id="140" value="email" style="text;strokeColor=#314354;fillColor=#647687;align=left;verticalAlign=top;spacingLeft=4;spacingRight=4;overflow=hidden;rotatable=0;points=[[0,0.5],[1,0.5]];portConstraint=eastwest;whiteSpace=wrap;html=1;labelBorderColor=none;fontSize=17;fontColor=#ffffff;strokeWidth=3;" parent="132" vertex="1">
                    <mxGeometry y="120" width="230" height="26" as="geometry"/>
                </mxCell>
                <mxCell id="139" value="address" style="text;strokeColor=#314354;fillColor=#647687;align=left;verticalAlign=middle;spacingLeft=4;spacingRight=4;overflow=hidden;points=[[0,0.5],[1,0.5]];portConstraint=eastwest;rotatable=0;whiteSpace=wrap;html=1;labelBorderColor=none;fontSize=17;fontColor=#ffffff;strokeWidth=3;" parent="132" vertex="1">
                    <mxGeometry y="146" width="230" height="30" as="geometry"/>
                </mxCell>
                <mxCell id="138" value="name" style="text;align=left;verticalAlign=middle;spacingLeft=4;spacingRight=4;overflow=hidden;points=[[0,0.5],[1,0.5]];portConstraint=eastwest;rotatable=0;whiteSpace=wrap;html=1;rounded=1;strokeWidth=3;fontSize=17;labelBorderColor=none;fillColor=#647687;fontColor=#ffffff;strokeColor=#314354;" parent="132" vertex="1">
                    <mxGeometry y="176" width="230" height="30" as="geometry"/>
                </mxCell>
                <mxCell id="144" style="edgeStyle=none;html=1;exitX=0.5;exitY=0;exitDx=0;exitDy=0;entryX=0.732;entryY=1.01;entryDx=0;entryDy=0;rounded=1;strokeWidth=3;endArrow=ERmany;endFill=0;fontSize=17;labelBorderColor=none;fillColor=#647687;strokeColor=#314354;entryPerimeter=0;" parent="1" source="8" target="138" edge="1">
                    <mxGeometry relative="1" as="geometry">
                        <mxPoint x="425" y="-600" as="sourcePoint"/>
                        <mxPoint x="490.0799999999999" y="-900.01" as="targetPoint"/>
                    </mxGeometry>
                </mxCell>
                <mxCell id="161" style="edgeStyle=none;html=1;exitX=0.5;exitY=0;exitDx=0;exitDy=0;rounded=1;strokeWidth=3;endArrow=ERmany;endFill=0;fontSize=17;labelBorderColor=none;fillColor=#647687;strokeColor=#314354;entryX=0.25;entryY=1;entryDx=0;entryDy=0;" parent="1" source="13" target="132" edge="1">
                    <mxGeometry relative="1" as="geometry">
                        <mxPoint x="41.129999999999995" y="-590" as="sourcePoint"/>
                        <mxPoint x="-270.0000000000001" y="-816.3400000000001" as="targetPoint"/>
                    </mxGeometry>
                </mxCell>
                <mxCell id="162" value="RadiologyCenter_Appointment" style="swimlane;fontStyle=0;childLayout=stackLayout;horizontal=1;startSize=30;horizontalStack=0;resizeParent=1;resizeParentMax=0;resizeLast=0;collapsible=1;marginBottom=0;whiteSpace=wrap;html=1;rounded=1;strokeWidth=3;fontSize=17;labelBorderColor=none;fillColor=#647687;fontColor=#ffffff;strokeColor=#314354;" parent="1" vertex="1">
                    <mxGeometry x="-250" y="-1440" width="340" height="150" as="geometry"/>
                </mxCell>
                <mxCell id="163" value="#radiology_center_id" style="text;align=left;verticalAlign=middle;spacingLeft=4;spacingRight=4;overflow=hidden;points=[[0,0.5],[1,0.5]];portConstraint=eastwest;rotatable=0;whiteSpace=wrap;html=1;rounded=1;strokeWidth=3;fontSize=17;labelBorderColor=none;fillColor=#647687;fontColor=#ffffff;strokeColor=#314354;" parent="162" vertex="1">
                    <mxGeometry y="30" width="340" height="30" as="geometry"/>
                </mxCell>
                <mxCell id="164" value="#user_id" style="text;align=left;verticalAlign=middle;spacingLeft=4;spacingRight=4;overflow=hidden;points=[[0,0.5],[1,0.5]];portConstraint=eastwest;rotatable=0;whiteSpace=wrap;html=1;rounded=1;strokeWidth=3;fontSize=17;labelBorderColor=none;fillColor=#647687;fontColor=#ffffff;strokeColor=#314354;" parent="162" vertex="1">
                    <mxGeometry y="60" width="340" height="30" as="geometry"/>
                </mxCell>
                <mxCell id="165" value="date" style="text;align=left;verticalAlign=middle;spacingLeft=4;spacingRight=4;overflow=hidden;points=[[0,0.5],[1,0.5]];portConstraint=eastwest;rotatable=0;whiteSpace=wrap;html=1;rounded=1;strokeWidth=3;fontSize=17;labelBorderColor=none;fillColor=#647687;fontColor=#ffffff;strokeColor=#314354;" parent="162" vertex="1">
                    <mxGeometry y="90" width="340" height="30" as="geometry"/>
                </mxCell>
                <mxCell id="166" value="time" style="text;align=left;verticalAlign=middle;spacingLeft=4;spacingRight=4;overflow=hidden;points=[[0,0.5],[1,0.5]];portConstraint=eastwest;rotatable=0;whiteSpace=wrap;html=1;rounded=1;strokeWidth=3;fontSize=17;labelBorderColor=none;fillColor=#647687;fontColor=#ffffff;strokeColor=#314354;" parent="162" vertex="1">
                    <mxGeometry y="120" width="340" height="30" as="geometry"/>
                </mxCell>
                <mxCell id="169" style="edgeStyle=none;html=1;exitX=0.5;exitY=0;exitDx=0;exitDy=0;entryX=1;entryY=1;entryDx=0;entryDy=0;rounded=1;strokeWidth=3;endArrow=ERmany;endFill=0;fontSize=17;labelBorderColor=none;fillColor=#647687;strokeColor=#314354;" parent="1" source="132" target="162" edge="1">
                    <mxGeometry relative="1" as="geometry">
                        <mxPoint x="29.919999999999987" y="-1076" as="sourcePoint"/>
                        <mxPoint x="19.999999999999915" y="-1230" as="targetPoint"/>
                    </mxGeometry>
                </mxCell>
                <mxCell id="170" style="edgeStyle=none;html=1;exitX=0.5;exitY=0;exitDx=0;exitDy=0;entryX=0.304;entryY=1.067;entryDx=0;entryDy=0;entryPerimeter=0;rounded=1;strokeWidth=3;endArrow=ERmany;endFill=0;fontSize=17;labelBorderColor=none;fillColor=#647687;strokeColor=#314354;" parent="1" source="13" target="166" edge="1">
                    <mxGeometry relative="1" as="geometry">
                        <mxPoint x="-270.08000000000004" y="-746" as="sourcePoint"/>
                        <mxPoint x="-280.0000000000001" y="-900" as="targetPoint"/>
                        <Array as="points">
                            <mxPoint x="-270" y="-840"/>
                        </Array>
                    </mxGeometry>
                </mxCell>
                <mxCell id="180" style="edgeStyle=none;html=1;exitX=0.478;exitY=1.089;exitDx=0;exitDy=0;entryX=0.268;entryY=0.989;entryDx=0;entryDy=0;entryPerimeter=0;rounded=1;strokeWidth=3;endArrow=ERmany;endFill=0;fontSize=17;labelBorderColor=none;exitPerimeter=0;fillColor=#647687;strokeColor=#314354;" parent="1" source="98" target="96" edge="1">
                    <mxGeometry relative="1" as="geometry">
                        <mxPoint x="247.5" y="-590" as="sourcePoint"/>
                        <mxPoint x="-63.63000000000011" y="-872.3400000000001" as="targetPoint"/>
                        <Array as="points">
                            <mxPoint x="750" y="-320"/>
                            <mxPoint x="360" y="-330"/>
                            <mxPoint x="-230" y="-330"/>
                        </Array>
                    </mxGeometry>
                </mxCell>
                <mxCell id="184" style="edgeStyle=none;html=1;entryX=0;entryY=0.5;entryDx=0;entryDy=0;rounded=1;strokeWidth=3;endArrow=ERmany;endFill=0;fontSize=17;labelBorderColor=none;fillColor=#647687;strokeColor=#314354;" edge="1" parent="1" target="58">
                    <mxGeometry relative="1" as="geometry">
                        <mxPoint x="270" y="-1056" as="sourcePoint"/>
                        <mxPoint x="100" y="-1280" as="targetPoint"/>
                    </mxGeometry>
                </mxCell>
                <mxCell id="186" style="edgeStyle=none;html=1;exitX=0.5;exitY=0;exitDx=0;exitDy=0;entryX=1;entryY=0.5;entryDx=0;entryDy=0;rounded=1;strokeWidth=3;endArrow=ERmany;endFill=0;fontSize=17;labelBorderColor=none;fillColor=#647687;strokeColor=#314354;" edge="1" parent="1" target="162">
                    <mxGeometry relative="1" as="geometry">
                        <mxPoint x="875" y="-590" as="sourcePoint"/>
                        <mxPoint x="1002.5" y="-900" as="targetPoint"/>
                        <Array as="points">
                            <mxPoint x="1120" y="-760"/>
                            <mxPoint x="1220" y="-1410"/>
                        </Array>
                    </mxGeometry>
                </mxCell>
                <mxCell id="187" value="Scans" style="swimlane;fontStyle=0;childLayout=stackLayout;horizontal=1;startSize=30;horizontalStack=0;resizeParent=1;resizeParentMax=0;resizeLast=0;collapsible=1;marginBottom=0;whiteSpace=wrap;html=1;rounded=1;strokeWidth=3;fontSize=17;labelBorderColor=none;fillColor=#647687;fontColor=#ffffff;strokeColor=#314354;" vertex="1" parent="1">
                    <mxGeometry x="-750" y="-1420" width="340" height="210" as="geometry"/>
                </mxCell>
                <mxCell id="188" value="#radiology_center_id" style="text;align=left;verticalAlign=middle;spacingLeft=4;spacingRight=4;overflow=hidden;points=[[0,0.5],[1,0.5]];portConstraint=eastwest;rotatable=0;whiteSpace=wrap;html=1;rounded=1;strokeWidth=3;fontSize=17;labelBorderColor=none;fillColor=#647687;fontColor=#ffffff;strokeColor=#314354;" vertex="1" parent="187">
                    <mxGeometry y="30" width="340" height="30" as="geometry"/>
                </mxCell>
                <mxCell id="189" value="#user_id" style="text;align=left;verticalAlign=middle;spacingLeft=4;spacingRight=4;overflow=hidden;points=[[0,0.5],[1,0.5]];portConstraint=eastwest;rotatable=0;whiteSpace=wrap;html=1;rounded=1;strokeWidth=3;fontSize=17;labelBorderColor=none;fillColor=#647687;fontColor=#ffffff;strokeColor=#314354;" vertex="1" parent="187">
                    <mxGeometry y="60" width="340" height="30" as="geometry"/>
                </mxCell>
                <mxCell id="192" value="#doctor_id" style="text;align=left;verticalAlign=middle;spacingLeft=4;spacingRight=4;overflow=hidden;points=[[0,0.5],[1,0.5]];portConstraint=eastwest;rotatable=0;whiteSpace=wrap;html=1;rounded=1;strokeWidth=3;fontSize=17;labelBorderColor=none;fillColor=#647687;fontColor=#ffffff;strokeColor=#314354;" vertex="1" parent="187">
                    <mxGeometry y="90" width="340" height="30" as="geometry"/>
                </mxCell>
                <mxCell id="190" value="date" style="text;align=left;verticalAlign=middle;spacingLeft=4;spacingRight=4;overflow=hidden;points=[[0,0.5],[1,0.5]];portConstraint=eastwest;rotatable=0;whiteSpace=wrap;html=1;rounded=1;strokeWidth=3;fontSize=17;labelBorderColor=none;fillColor=#647687;fontColor=#ffffff;strokeColor=#314354;" vertex="1" parent="187">
                    <mxGeometry y="120" width="340" height="30" as="geometry"/>
                </mxCell>
                <mxCell id="191" value="time" style="text;align=left;verticalAlign=middle;spacingLeft=4;spacingRight=4;overflow=hidden;points=[[0,0.5],[1,0.5]];portConstraint=eastwest;rotatable=0;whiteSpace=wrap;html=1;rounded=1;strokeWidth=3;fontSize=17;labelBorderColor=none;fillColor=#647687;fontColor=#ffffff;strokeColor=#314354;" vertex="1" parent="187">
                    <mxGeometry y="150" width="340" height="30" as="geometry"/>
                </mxCell>
                <mxCell id="193" value="type of user" style="text;align=left;verticalAlign=middle;spacingLeft=4;spacingRight=4;overflow=hidden;points=[[0,0.5],[1,0.5]];portConstraint=eastwest;rotatable=0;whiteSpace=wrap;html=1;rounded=1;strokeWidth=3;fontSize=17;labelBorderColor=none;fillColor=#647687;fontColor=#ffffff;strokeColor=#314354;" vertex="1" parent="187">
                    <mxGeometry y="180" width="340" height="30" as="geometry"/>
                </mxCell>
                <mxCell id="194" style="edgeStyle=none;html=1;exitX=0.5;exitY=0;exitDx=0;exitDy=0;entryX=0.543;entryY=1.152;entryDx=0;entryDy=0;entryPerimeter=0;rounded=1;strokeWidth=3;endArrow=ERmany;endFill=0;fontSize=17;labelBorderColor=none;fillColor=#647687;strokeColor=#314354;" edge="1" parent="1" target="193">
                    <mxGeometry relative="1" as="geometry">
                        <mxPoint x="15" y="-580" as="sourcePoint"/>
                        <mxPoint x="-136.64000000000033" y="-1277.99" as="targetPoint"/>
                        <Array as="points">
                            <mxPoint x="-300" y="-800"/>
                        </Array>
                    </mxGeometry>
                </mxCell>
                <mxCell id="196" style="edgeStyle=none;html=1;rounded=1;strokeWidth=3;endArrow=ERmany;endFill=0;fontSize=17;labelBorderColor=none;fillColor=#647687;strokeColor=#314354;" edge="1" parent="1" target="193">
                    <mxGeometry relative="1" as="geometry">
                        <mxPoint x="560" y="-600" as="sourcePoint"/>
                        <mxPoint x="12.5" y="-846" as="targetPoint"/>
                        <Array as="points">
                            <mxPoint x="-520" y="-780"/>
                        </Array>
                    </mxGeometry>
                </mxCell>
                <mxCell id="199" style="edgeStyle=none;html=1;exitX=0.5;exitY=0;exitDx=0;exitDy=0;entryX=1;entryY=0.5;entryDx=0;entryDy=0;rounded=1;strokeWidth=3;endArrow=ERmany;endFill=0;fontSize=17;labelBorderColor=none;fillColor=#647687;strokeColor=#314354;" edge="1" parent="1" target="191">
                    <mxGeometry relative="1" as="geometry">
                        <mxPoint x="265" y="-1056" as="sourcePoint"/>
                        <mxPoint x="100" y="-1280" as="targetPoint"/>
                    </mxGeometry>
                </mxCell>
                <mxCell id="201" style="edgeStyle=none;html=1;exitX=0.5;exitY=0;exitDx=0;exitDy=0;entryX=0.75;entryY=0;entryDx=0;entryDy=0;rounded=1;strokeWidth=3;endArrow=ERmany;endFill=0;fontSize=17;labelBorderColor=none;fillColor=#647687;strokeColor=#314354;" edge="1" parent="1" target="187">
                    <mxGeometry relative="1" as="geometry">
                        <mxPoint x="885" y="-580" as="sourcePoint"/>
                        <mxPoint x="100" y="-1355" as="targetPoint"/>
                        <Array as="points">
                            <mxPoint x="1130" y="-750"/>
                            <mxPoint x="1260" y="-1110"/>
                            <mxPoint x="1230" y="-1470"/>
                            <mxPoint x="180" y="-1610"/>
                        </Array>
                    </mxGeometry>
                </mxCell>
            </root>
        </mxGraphModel>
    </diagram>
</mxfile>